<mxfile host="Electron" agent="Mozilla/5.0 (Windows NT 10.0; Win64; x64) AppleWebKit/537.36 (KHTML, like Gecko) draw.io/27.0.2 Chrome/134.0.6998.205 Electron/35.3.0 Safari/537.36" version="27.0.2">
  <diagram name="Page-1" id="KIAgU9xkqqHHuDh1v_bS">
    <mxGraphModel dx="1396" dy="811" grid="1" gridSize="10" guides="1" tooltips="1" connect="1" arrows="1" fold="1" page="1" pageScale="1" pageWidth="850" pageHeight="1100" math="0" shadow="0">
      <root>
        <mxCell id="0" />
        <mxCell id="1" parent="0" />
        <mxCell id="D1szhrhc8fJ5pJolzlQ5-1" value="&lt;span style=&quot;background-color: light-dark(rgb(245, 245, 245), rgb(245, 245, 245));&quot;&gt;&lt;font style=&quot;font-size: 28px;&quot;&gt;&lt;span style=&quot;color: rgb(77, 77, 77); font-family: &amp;quot;cascadia code&amp;quot;; font-style: normal; font-weight: 400; letter-spacing: normal; text-align: left; text-indent: 0px; text-transform: none; word-spacing: 0px; display: inline; float: none;&quot;&gt;if &lt;/span&gt;&lt;b style=&quot;color: rgb(77, 77, 77); font-family: &amp;quot;cascadia code&amp;quot;; font-style: normal; letter-spacing: normal; text-align: left; text-indent: 0px; text-transform: none; word-spacing: 0px;&quot;&gt;&lt;font color=&quot;#ffb570&quot; style=&quot;font-size: 28px;&quot;&gt;&amp;lt;expresión condicional A&amp;gt;&lt;/font&gt;&lt;/b&gt;&lt;span style=&quot;font-family: &amp;quot;cascadia code&amp;quot;; font-style: normal; letter-spacing: normal; text-align: left; text-indent: 0px; text-transform: none; word-spacing: 0px; display: inline; float: none;&quot;&gt;&lt;b&gt;&lt;font color=&quot;#0000ee&quot; style=&quot;font-size: 28px;&quot;&gt;:&lt;/font&gt;&lt;/b&gt;&lt;/span&gt;&lt;br style=&quot;color: rgb(77 , 77 , 77) ; font-family: &amp;quot;cascadia code&amp;quot; ; font-style: normal ; font-weight: 400 ; letter-spacing: normal ; text-align: left ; text-indent: 0px ; text-transform: none ; word-spacing: 0px&quot;&gt;&lt;font style=&quot;font-family: &amp;quot;cascadia code&amp;quot;; font-style: normal; letter-spacing: normal; text-align: left; text-indent: 0px; text-transform: none; word-spacing: 0px; font-size: 28px;&quot;&gt;&lt;font color=&quot;#4d4d4d&quot;&gt;&amp;nbsp; &amp;nbsp;&amp;nbsp;&lt;/font&gt;&lt;b style=&quot;color: rgb(181, 115, 157);&quot;&gt;&amp;lt;código bloque if A&amp;gt;&lt;br&gt;&lt;/b&gt;&lt;/font&gt;&lt;/font&gt;&lt;/span&gt;&lt;font style=&quot;font-size: 28px;&quot;&gt;&lt;span style=&quot;color: rgb(77, 77, 77); font-family: &amp;quot;cascadia code&amp;quot;;&quot;&gt;elif&amp;nbsp;&lt;/span&gt;&lt;b style=&quot;background-color: rgb(245, 245, 245); color: rgb(77, 77, 77); font-family: &amp;quot;cascadia code&amp;quot;;&quot;&gt;&lt;font color=&quot;#ffb570&quot;&gt;&amp;lt;expresión condicional B&amp;gt;&lt;/font&gt;&lt;/b&gt;&lt;span style=&quot;font-family: &amp;quot;cascadia code&amp;quot;;&quot;&gt;&lt;b&gt;&lt;font color=&quot;#0000ee&quot;&gt;:&lt;br&gt;&lt;/font&gt;&lt;/b&gt;&lt;/span&gt;&lt;/font&gt;&lt;span style=&quot;color: rgb(181, 115, 157); font-family: &amp;quot;cascadia code&amp;quot;; font-size: 28px;&quot;&gt;&lt;b&gt;&amp;nbsp; &amp;nbsp; &amp;lt;código bloque if B&amp;gt;&lt;/b&gt;&lt;/span&gt;&lt;span style=&quot;background-color: light-dark(rgb(245, 245, 245), rgb(245, 245, 245));&quot;&gt;&lt;font style=&quot;font-size: 28px;&quot;&gt;&lt;span style=&quot;color: rgb(77, 77, 77); font-family: &amp;quot;cascadia code&amp;quot;;&quot;&gt;&lt;br&gt;&lt;/span&gt;&lt;/font&gt;&lt;/span&gt;&lt;div&gt;&lt;span style=&quot;background-color: transparent; font-size: 28px; color: rgb(77, 77, 77); font-family: &amp;quot;cascadia code&amp;quot;;&quot;&gt;&lt;span style=&quot;background-color: transparent; color: rgb(77, 77, 77);&quot;&gt;elif&amp;nbsp;&lt;/span&gt;&lt;b style=&quot;background-color: rgb(245, 245, 245); color: rgb(77, 77, 77);&quot;&gt;&lt;font color=&quot;#ffb570&quot;&gt;&amp;lt;expresión condicional C&amp;gt;&lt;/font&gt;&lt;/b&gt;&lt;span style=&quot;color: rgb(51, 51, 51); font-family: &amp;quot;Cascadia Code&amp;quot;; font-size: 35px; background-color: light-dark(rgb(245, 245, 245), rgb(245, 245, 245));&quot;&gt;&lt;font style=&quot;font-size: 28px;&quot;&gt;&lt;span style=&quot;font-family: &amp;quot;cascadia code&amp;quot;;&quot;&gt;&lt;b&gt;&lt;font color=&quot;#0000ee&quot;&gt;:&lt;br&gt;&lt;/font&gt;&lt;/b&gt;&lt;/span&gt;&lt;/font&gt;&lt;span style=&quot;color: rgb(181, 115, 157); font-family: &amp;quot;cascadia code&amp;quot;; font-size: 28px;&quot;&gt;&lt;b&gt;&amp;nbsp; &amp;nbsp; &amp;lt;código bloque if C&amp;gt;&lt;/b&gt;&lt;/span&gt;&lt;/span&gt;&lt;/span&gt;&lt;/div&gt;&lt;div&gt;&lt;span style=&quot;background-color: transparent; font-size: 28px; color: rgb(77, 77, 77); font-family: &amp;quot;cascadia code&amp;quot;;&quot;&gt;elif&amp;nbsp;&lt;/span&gt;&lt;b style=&quot;font-size: 28px; background-color: rgb(245, 245, 245); color: rgb(77, 77, 77); font-family: &amp;quot;cascadia code&amp;quot;;&quot;&gt;&lt;font color=&quot;#ffb570&quot;&gt;&amp;lt;expresión condicional D&amp;gt;&lt;/font&gt;&lt;/b&gt;&lt;span style=&quot;background-color: light-dark(rgb(245, 245, 245), rgb(245, 245, 245));&quot;&gt;&lt;font style=&quot;font-size: 28px;&quot;&gt;&lt;span style=&quot;font-family: &amp;quot;cascadia code&amp;quot;;&quot;&gt;&lt;b&gt;&lt;font color=&quot;#0000ee&quot; style=&quot;font-size: 28px;&quot;&gt;:&lt;br&gt;&lt;/font&gt;&lt;/b&gt;&lt;/span&gt;&lt;/font&gt;&lt;span style=&quot;color: rgb(181, 115, 157); font-family: &amp;quot;cascadia code&amp;quot;; font-size: 28px;&quot;&gt;&lt;b&gt;&amp;nbsp; &amp;nbsp; &amp;lt;código bloque if D&amp;gt;&lt;/b&gt;&lt;/span&gt;&lt;/span&gt;&lt;/div&gt;" style="text;whiteSpace=wrap;html=1;fontSize=35;fontFamily=Cascadia Code;fontColor=#333333;fillColor=#F5F5F5;strokeColor=#666666;spacingLeft=10;" parent="1" vertex="1">
          <mxGeometry x="140" y="220" width="530" height="350" as="geometry" />
        </mxCell>
      </root>
    </mxGraphModel>
  </diagram>
</mxfile>
